<svg xmlns="http://www.w3.org/2000/svg" viewBox="0 0 3000 2000"><defs><style>.cls-1{fill:#291d25;}</style></defs><g id="Layer_6" data-name="Layer 6"><g id="g"><path class="cls-1" d="M899.86052,1046.76312A88.2216,88.2216,0,0,0,889.309,1018.895c-9.96394-16.586-26.60086-28.19282-45.28022-32.82906-37.28261-9.25357-78.60171-.29954-110.42825,20.35546A268.757,268.757,0,0,0,656.409,1083.105q-4.66485,7.03491-8.8796,14.43944c13.65841-23.96356,50.36726-34.2984,76.12632-31.94032,30.32616,2.77616,55.96147,23.45074,68.18369,50.89125,11.08419,24.88632,16.7361,79.113-18.15327,88.16177-16.3983,4.253-35.44091-.35681-51.42714-4.4922-83.82216-21.68357-130.74249-110.76777-133.287-192.38833A245.15014,245.15014,0,0,1,609.559,900.925a216.55122,216.55122,0,0,1,19.50994-34.89c17.75-25.77,40.49-46.27,66.32966-59.34985-35.85427,18.14913-74.71434,29.94056-114.29526,36.54-26.20046,4.36845-77.11452,17.63709-96.51664-7.75872-17.90483-23.436-4.0899-59.007,13.6341-78.34728,13.8558-15.11931,30.79287-27.4218,47.26821-39.5041q2.925-2.14507,5.90995-4.21-8.895,1.95-17.55,4.73a193.35352,193.35352,0,0,0-57.62982,29.87986c-47.59026,35.95944-72.1512,91.96537-75.3243,150.6423-6.1966,114.58752,28.85746,229.77008,92.247,324.87109a559.3329,559.3329,0,0,0,48.02711,62.12671q.82956.93021,1.66379,1.85647c41.15047,45.69048,104.72985,66.76431,165.55643,56.52361,87.012-14.64934,147.254-92.06538,173.87976-171.56C894.12423,1137.07946,908.19782,1087.33721,899.86052,1046.76312ZM546.87893,1180.65494a551.308,551.308,0,0,1-46.13995-88.59q-5.50507-13.41009-10.31-27.18A550.02745,550.02745,0,0,1,460.189,907.185c-.03-.78-.06006-1.56-.1-2.34,1.05.21,2.1.41,3.14.6a343.096,343.096,0,0,0,56.69912,5.74c-6.83835-.11028-5.22661,84.67413-5.01305,92.02265A554.52905,554.52905,0,0,0,547.909,1176.825q2.325,6.405,4.81,12.72009Q549.764,1185.135,546.87893,1180.65494Z"/><path class="cls-1" d="M859.659,819.155v43.3q-8.325,5.055-16.33,10.66-5.04,3.525-9.95,7.27a305.23157,305.23157,0,0,0-43.73,40.55h-.01q-2.64-1.845-5.33-3.65a307.15319,307.15319,0,0,0-72.98-35.7q-7.89-2.64-15.82-4.83a265.8948,265.8948,0,0,1,75.2-47.78c2-.84,4.01-1.66,6.03-2.44q11.055-4.35,22.5-7.68a263.34389,263.34389,0,0,1,35.95-7.83c3.13995-.46,6.3-.86,9.46-1.21Z"/></g><path id="h" class="cls-1" d="M1197.659,991.695V1185.572c0,52.67608-19.15191,103.77535-54.64743,142.69626A263.83927,263.83927,0,0,1,1104.659,1362.675c-53,39.1101-124.19995,63.05005-202.5,63.05005a368.30324,368.30324,0,0,1-97.51-12.95q7.71.29994,15.51.30994c112.77773,0,210.854-49.66653,260.98041-122.79453A136.31361,136.31361,0,0,0,1104.659,1213.165v-203.26l-55.91992-53.17-26.23011,21.28-20.37,16.51-16.48,13.36v165.55l24.29,14.22-24.29,36.08008-34.25,50.87-49.25-27.2301c17.05-27.32984,31.13-69.38989,37.49-117.58985,4.11-31.13012,4.45-60.63012,1.64-85.92-.72-6.55005-1.65-12.81006-2.79-18.74-6.81-35.66-20.82-59.55-39.66-62.04-.23-.03-.45-.06-.68-.08V676.435l42.95,71.32,44.55,73.99v165.14l1.33008-1.07,16.93994-13.74,32.88989-26.67,60.54-49.08,7.30005,6.94,4.62,4.39Z"/><g id="u"><path class="cls-1" d="M1851.439,781.695a244.32286,244.32286,0,0,0-292.78,217.3q-.98987,10.98-1,22.23005,0,11.235,1,22.23v115.35l-48.97,104.58-10.18006,21.74a107.82,107.82,0,0,1-24.14-44.25c-.25-.91992-.49-1.84986-.71-2.77991a75.65445,75.65445,0,0,1-2-17.74l-.71.42-14.31006,8.47-42.78,25.33-41.19995,24.39-9.99,5.90991a279.79348,279.79348,0,0,1-102.54-54.53992l12.91-12.17,13.62-12.83,9-8.48V1098.805a253.29268,253.29268,0,0,1,77-95.82995v171.17993l25.94995,17.02,27.57007,18.09009,10.58,6.92993,34.9-20.65992V1081.555q.98987-11.53491,1-23.32995,0-11.79-1-23.33a266.60853,266.60853,0,0,0-16.89-73.22q-3-7.815-6.49-15.39a362.18864,362.18864,0,0,1,23.38-33.82,366.97406,366.97406,0,0,1,378.78-130.77Z"/><polygon class="cls-1" points="1296.659 1003.595 1287.659 1011.025 1287.659 930.665 1296.659 936.985 1340.249 967.585 1296.659 1003.595"/></g><g id="b"><path class="cls-1" d="M1694.659,650.315v80.49c-1.65991-.05-3.33008-.08-5-.08a157.24,157.24,0,0,0-74,18.37q-4.335,2.295-8.5,4.85V574.275l8.5,7.39Z"/><path class="cls-1" d="M1844.50893,920.255l-35.7799-37.7-.07007.04-114,72.46V868.865a157.92971,157.92971,0,0,0-79,136.86v168.81l-8.5,9.89991-44.9,52.29h90.39l42.01,23.81,47.01,26.64991,66.99-54.74,14.15991-11.57007,59.84009-48.8999V960.465Zm-35.85,243.4-33.90991,29.97L1694.659,1148.235v-128.4l61.82007-39.29,30.62988,32.56,21.55005,22.91v123.81q3.03-.67511,6-1.47Z"/></g><g id="o"><path class="cls-1" d="M2109.659,887.565l-52.24-52.84-6.11987-6.19-6.04,6.19L1918.659,964.455V1152.255l69.17993,107.47h108.02l13.80005-13.7,81-80.40014V969.495Zm0,220.31995-55.65991,53.92-50.34009-40.88V979.175l9.77-10.36005,96.23,91.53Z"/></g><g id="r"><path class="cls-1" d="M2528.659,979.725a88.65671,88.65671,0,0,1-44.62988-11.97q-.63025-.36-1.26026-.75a3.87525,3.87525,0,0,1-.33984-.21c-30.91992-18.84-60.21-47.97-83.32007-84.06l-55.32007,49.62-8.1499,7.3-15.98,14.33v-23l-14-7.6-71-38.55-74.60986-40.5,74.60986,86.46v164.17c0,17.76.32007,62.04-1,72.76-14.85986,120.92993-109.83008,207-226,207a213.66428,213.66428,0,0,1-35.24-2.91,234.13586,234.13586,0,0,0,94.74,19.91c65.12012,0,124.19995-26.58008,167.5-69.76a248.12319,248.12319,0,0,0,62.23775-103.957,211.10276,211.10276,0,0,0,8.76225-61.06706V1063.825l84.6499-75.91c52.77,47.72,117.08008,64.26,162.58008,36.05,14.59009-9.05,25.92993-21.88,33.95-37.39a130.97925,130.97925,0,0,0,12.97-42.37A88.89076,88.89076,0,0,1,2528.659,979.725Zm-209,19.64V976.495l20.29-18.19,12.71,11.47Z"/></g></g></svg>